<?xml version="1.0" encoding="utf-8"?>
<!-- Generator: Adobe Illustrator 20.1.0, SVG Export Plug-In . SVG Version: 6.00 Build 0)  -->
<svg version="1.1" id="Calque_1" xmlns="http://www.w3.org/2000/svg" xmlns:xlink="http://www.w3.org/1999/xlink" x="0px" y="0px"
	 width="284px" height="87px" viewBox="0 0 284 87" style="enable-background:new 0 0 284 87;" xml:space="preserve">
<style type="text/css">
	.st0{fill:#303030;}
	.st1{opacity:0.5995;enable-background:new    ;}
</style>
<g>
	<g id="fromscratch-logo">
		<g>
			<path id="fromscratch" class="st0" d="M105.6,15.9c-5.4,0-9.1,2.7-9.1,7V26H95v4.2h1.5V42h4.6V30.3h3.6V26h-3.6v-2.6
				c0-2.2,1.5-3.3,4.5-3.3V15.9z M117.4,22c-1.9,0-3.3,0.5-4.5,1.3v-1h-4.6V42h4.6V30c0-2.6,1.5-3.9,4.5-3.9V22z M126.9,42.3
				c5.2,0,7.7-2.4,7.7-7.8v-4.8c0-5.4-2.5-7.8-7.7-7.8s-7.7,2.5-7.7,7.8v4.8C119.2,39.9,121.7,42.3,126.9,42.3z M126.9,38.2
				c-2.4,0-3.1-1.4-3.1-3.9V30c0-2.5,0.6-3.9,3.1-3.9s3.1,1.4,3.1,3.9v4.3C130,36.8,129.4,38.2,126.9,38.2z M139.5,42h4.6V29.6
				c0-2.6,1.4-3.5,3.2-3.5c1.9,0,3,1,3,3.6V42h4.6V29.3c0.1-2.4,1.4-3.2,3.1-3.2c1.9,0,3,1,3,3.6V42h4.6V28.8c0-4.5-2.5-6.8-6.6-6.8
				c-2.4,0-4.1,0.5-5.6,2c-1.2-1.4-2.9-2-5.1-2c-2.4,0-4.1,0.5-5.7,2.1c-0.9-1.8-3.2-2.1-5.7-2.1v4.4c1.6,0.1,2.4,0.4,2.4,1.8
				L139.5,42z M183.7,35.3c0-7.7-10.7-2.9-10.7-7.1c0-1.4,1.2-2.1,3-2.1c2,0,3,0.9,3,2.7h4.7c0-4-3-6.8-7.8-6.8
				c-4.3,0-7.6,2.3-7.6,6.8c0,8.1,10.7,3.5,10.7,7.2c0,1-0.8,1.9-2.6,1.9c-2.2,0-3.2-0.9-3.3-2.3h-4.7c0,3.9,2.9,6.4,7.6,6.4
				C180.3,42.1,183.7,39.7,183.7,35.3z M201.8,29.8c0-5.4-2.5-7.8-7.7-7.8c-5.2,0-7.7,2.6-7.7,7.8v4.8c0,5.4,2.5,7.8,7.7,7.8
				c5.2,0,7.7-2.4,7.7-7.8h-4.5c0,2.3-0.8,3.7-3.2,3.7c-2.4,0-3.1-1.4-3.1-3.9V30c0-2.5,0.6-3.9,3.2-3.9c2.3,0,3.1,1.4,3.1,3.7
				H201.8z M214,22c-1.9,0-3.3,0.5-4.5,1.3v-1h-4.6V42h4.6V30c0-2.6,1.5-3.9,4.5-3.9V22z M227.3,39.7c0.9,2.1,3.2,2.4,5.6,2.4v-4.4
				c-1.6-0.1-2-0.4-2-1.8V22.3h-7.4c-3.9,0-7.7,2.3-7.7,6.8v6.3c0,4.5,2.5,6.8,6.6,6.8C225,42.1,226.3,40.8,227.3,39.7z M223.3,38
				c-1.9,0-2.9-1.1-2.9-3.9v-4.4c0-2.1,1-3.2,3.1-3.2h2.7V34C226.2,36.5,225.6,38,223.3,38z M236.8,22h-1.7v4.2h1.7v8.5
				c0,5.7,1.6,7.3,7,7.3v-4.5c-1.9,0-2.3-0.7-2.3-2.9v-8.4h3.4V22h-3.4v-3.2h-4.6V22z M262.9,29.8c0-5.4-2.5-7.8-7.7-7.8
				s-7.7,2.6-7.7,7.8v4.8c0,5.4,2.5,7.8,7.7,7.8s7.7-2.4,7.7-7.8h-4.5c0,2.3-0.8,3.7-3.2,3.7s-3.1-1.4-3.1-3.9V30
				c0-2.5,0.6-3.9,3.2-3.9c2.3,0,3.1,1.4,3.1,3.7H262.9z M265.7,42h4.6V29.3c0-1.8,0.5-3.2,3.1-3.2s3.1,1.4,3.1,3.2V42h4.6V28.7
				c0-4.5-2-6.8-7.1-6.8c-1.5,0-2.6,0.2-3.6,0.6V16h-4.7V42z"/>
			<path id="Combined-Shape" class="st0" d="M40.7,44.7H37v11.9h-4.7V44.7h-1.5v-4.3h1.5v-3.2c0-4.3,3.7-7,9.2-7v4.3
				c-3,0-4.5,1.1-4.5,3.4v2.6h4c1.1-2.7,3.9-4.1,7.2-4.1c4.8,0,7.9,2.9,7.9,6.9h-4.7c0-1.8-1-2.7-3.1-2.7c-1.8,0-3,0.7-3,2.1
				c0,4.2,10.8-0.6,10.8,7.2c0,4.4-3.4,6.9-7.8,6.9c-4.8,0-7.7-2.6-7.7-6.5h4.7c0.1,1.4,1.1,2.3,3.3,2.3c1.9,0,2.7-1,2.7-1.9
				C51.3,47,42,50.7,40.7,44.7z M82.6,44.8c-0.7-0.2-2.7-0.3-4.1,0c-1.4,0.3-2.2,0.2-3.1,0c-1-0.3-3.3-1.3-2.7-2.2
				c0.6-0.8,2.7-1.8,0.4-2.9c-1-0.6-1.9-1.2-1.7-2.6c0.2-1.2,1-2.2,1.9-2.7c1.3-0.8,3.5-0.3,4.7-1.9c0.6-0.8-1.7-1.6-3.4-0.4
				c-1.8,1.2-2.5,1.2-3.9,1c-0.7-0.1-1.3-0.6-1.4-1.3c-0.1-0.7,0.2-1.3,1-1.6c0.3-0.1,0.7-0.3,0.8-0.9c0.1-0.5-0.5-0.9-1.3-1
				c-0.8-0.1-1.3,0-1.9-0.1c-1.3-0.2-2-2.2-1.3-3.3c1-1.5,1.9-3.2,5.2-5.5s3.6-4.3,2.6-4.3c-1.5-0.1-3.6,2.8-5.2,4.5
				c-1.6,1.7-3,2.5-4.3,3.1c-1.3,0.6-2.5,0-2.6-1.4c0-0.4,0-0.8-0.1-1.2c-0.4-1.3-1.1-1.6-2.5-1.2c-1.9,0.6-2.4,0.2-2.9-0.9
				c-0.7-1.5-0.4-2.7,0.1-4.1c0.3-0.7,0.9-1.6,0.2-2.3c-0.6-0.7-1.7-0.3-2,0.3c-0.5,0.8-0.3,1.7-0.5,2.6c-0.2,1.4-1,2.4-2.3,3.1
				c-1.2,0.6-2.7,0.3-3.6-0.7c-2.6-2.8-2.6-6.5-2.5-7.7c0.1-2.3,1.3-7.1,0.4-8.4c-0.2-0.3-0.8-0.5-1.2-0.5c-0.6,0-1,0.6-1,1.2
				c-0.1,2,0.5,7.1,0.4,9.3c-0.1,2.3-0.8,4.3-1.8,5.1c-0.7,0.5-1.6,0.7-2.3,0.2c-0.2-0.2-0.5-0.4-0.7-0.6c-1.2-1.2-1.8-1.3-3.4-0.6
				c-1.4,0.6-3.8-0.4-5-2.7C31,11,30.6,8.2,30,7.5c-0.6-0.6-1.9-0.3-2.4,0.6c-0.5,0.9-0.1,2.2,0.7,3c0.8,0.7,1.5,1.7,2.3,3.1
				s0.3,2.9-0.3,4.1c-0.5,1.1-2,0.4-3.1-0.2c-1.1-0.6-2-0.3-2.5,0.7c-0.4,0.9,0.2,2.2-1.5,1.8c-3.1-0.7-4.1-2.2-6.2-4
				c-1.3-1.1-2.9-3-3.7-2c-0.8,0.9,0.9,2.4,2.1,3.1c1.8,1.2,3.1,2.7,3.7,3.7c0.6,1,0.9,2,0.2,2.5c-0.5,0.3-1.3,0.7-2.1,0.2
				c-1-0.6-2.3-0.3-2.6,0.2c-0.4,0.6,0.3,1.6,1.4,2c1.1,0.4,2,1.6,2,3c0,0.4-0.1,1.1-0.7,1.3l0,0c-2.1,0.5,0.6,2.2-2.5,2.5
				c-1.5,0.1-2-0.1-3.8-0.9c-1.7-0.9-2.9,0.8-2.7,1.4c0.3,1,1.9,1.1,3,0.8c1.4-0.4,3.8,1.1,4.2,2c0.4,0.8-0.2,2-1.1,3.1
				c-0.9,1-1.9,1.2-3,1.4c-1.4,0.2-3-0.1-4.8-0.2c-1.8-0.1-6-1.6-6.9,0.2c-0.6,1.1,1.9,1.8,3.8,1.9c2.6,0.1,5.1-0.5,6.8,0.2
				c0.9,0.4,1.7,0.8,2.4,1.6c0.8,0.9,0.9,4.2,0.2,5.2c-0.6,0.8-0.6,1.5,0.5,1.8c1.2,0.3,1.9,1.5,1.5,2.6c-0.2,0.6-1,1.1-1.5,1.5
				c-0.8,0.7-1.8,0.8-2.8,1.1c-0.9,0.2-3.5,2.3-0.5,3c1,0.2,1.8-0.4,2.5-1.1c1.3-1.3,3.9-1.9,5.5-1c0.6,0.4,0.7,1,0.2,1.6
				c-0.7,0.8-1,1.8-0.4,2.5c1.3,1.3-2.8,3.5-4.2,4.3c-1.6,0.9-3.2,1.9-4.3,3.5c-1.1,1.4-0.4,2.8,0.4,2.8c1-0.1,1.7-0.8,2.4-1.4
				c1.5-1.3,2.2-2.3,4.6-4.1c2.3-1.8,4.3-2.4,6.3-1.6c2,0.8,0.7,3.1,1.9,4.9c0.3,0.4,0.5,1,1.5,0.9c1-0.2,1.7-2.2,3.4-0.9
				c2.2,1.7-0.2,6-0.9,7.4c-0.8,1.4-2.1,3.4-2.5,4.4c-0.4,1-1.8,3.8-0.1,4.3c1.4,0.4,3.5-6,4.2-7.8c0.7-1.8,2.7-4.4,4.3-4.6
				c0.6-0.2,0.9,0.2,1.1,0.7c0.7,2.1,1.3,1.4,1.7,0.5c0.2-0.4,0.4-1.1,0.8-1.7c0.8-1.1,1.9,0.1,2,1c0.5,1.4,0.5,1.9,0.1,3.8
				c-0.4,1.9,1.5,2.5,2.1,2.2c0.9-0.5,0.5-2,0-3.1c-0.5-1.1-0.1-2.8,0.6-3.4c0.7-0.6,2-1.3,2.9-1.3c1.4,0.1,2.3,0.9,2.7,1.9
				c0.5,1.3,1.3,3.9,1.6,5.6c0.3,1.7,0,6.4,2,6.8c1.2,0.2,1.2-2.4,0.7-4.3c-0.7-2.5-1.7-4.6-1.6-6.4c0-2.2,1.2-3,1.5-3.2
				c0.9-0.8,1.9,0.7,3-0.2c0.6-0.4,0.9-1.6,1.2-2.3c0.7-1.4,1.7-1.7,3.2-1.5c2.7-0.1,4.3,3.5,4.9,4.8c0.5,0.9,1,1.9,1.7,2.6
				c3.3,3.2,3.1-0.3,3.1-0.9c-0.2-1.2-0.9-2.1-1.7-2.9c-0.8-0.8-2-1.6-3.3-3.1c-1.3-1.4-2-4.2-1.5-5.3c0.5-1.1,1.1-1.6,2.1-1.5
				s2.8-0.8,2.9-2.2c0-0.5-0.1-1.1-0.1-1.6c-0.1-2.5,4.7-0.9,5.8-0.2c2.1,1.4,3.5,0.6,3.6-0.1c0.1-0.7-0.5-1.4-1.1-1.7
				c-1.7-0.8-4.3-0.9-5.6-2.2c-0.7-0.7-1-1.3-1.1-2.4c-0.1-1.1,0.7-1.9,1.6-2.4c0.5-0.3,0.7-0.7,0.6-1.2c-0.2-0.9,0.3-1.9,1.3-2.1
				c0.9-0.2,1.7-0.2,2.7,0c1.2,0.1,4.4,0.7,5.2,0.7c0.8,0,2.2-0.2,2.5-0.6C84.5,45.8,83.3,45,82.6,44.8z"/>
		</g>
		<g class="st1">
			<path class="st0" d="M111.7,64.7c0,5.4-2.1,7.5-7.4,7.5c-5.3,0-7.4-2.2-7.4-7.5V45.8h3.2v6.8c1-0.5,2.5-0.7,4.2-0.7
				c5.3,0,7.4,2.5,7.4,7.9V64.7z M100.1,64.7c0,3.6,1.3,4.5,4.2,4.5s4.2-0.9,4.2-4.5v-4.9c0-3.6-1.3-4.8-4.2-4.8s-4.1,0.9-4.2,4.5
				L100.1,64.7z"/>
			<path class="st0" d="M115.4,45.8h3.1v20.9c0,1.6,0.6,2,2,2v3.2c-3.9,0-5.2-1-5.2-5.1V45.8z"/>
			<path class="st0" d="M122.9,64.7v-5.6c0-5.2,2.8-7.1,7.4-7.1c4.6,0,7.4,1.9,7.4,7.1v5.6c0,5.4-2.1,7.5-7.4,7.5
				C125,72.3,122.9,70.1,122.9,64.7z M134.5,64.7v-5.6c0-3.6-1.3-4.1-4.2-4.1c-2.9,0-4.2,0.5-4.2,4.1v5.6c0,3.6,1.3,4.5,4.2,4.5
				C133.2,69.2,134.5,68.3,134.5,64.7z"/>
			<path class="st0" d="M143.3,75h4.6c3.1,0,4.2-0.9,4.2-4.5v-1.4c-1.1,0.5-2.5,0.7-4.2,0.7c-5.3,0-7.4-2.2-7.4-7.5v-3.3
				c0-5.2,2.8-7.1,7.4-7.1c4.6,0,7.4,1.9,7.4,7.1v11.5c0,5.9-2.1,7.5-7.4,7.5h-4.6V75z M152.1,62.3v-3.3c0-3.6-1.3-4.1-4.2-4.1
				s-4.2,0.5-4.2,4.1v3.3c0,3.6,1.3,4.5,4.2,4.5S152.1,65.9,152.1,62.3z"/>
		</g>
	</g>
</g>
</svg>
