<svg xmlns="http://www.w3.org/2000/svg" width="400" height="30" viewBox="0 0 400 30">
  <g fill="none" fill-rule="evenodd">
    <path fill="#FFFFFF" d="M0,0 L30,0 L30,30 L0,30 L0,0 Z M27.6097564,8.36738561 C26.7041229,8.76901212 25.7311129,9.04062323 24.7099393,9.16247977 C25.752168,8.53793212 26.5527891,7.54834125 26.9299391,6.36899106 C25.9545604,6.94774381 24.8739061,7.36805674 23.7237699,7.59439934 C22.8026082,6.61323051 21.4906107,6 20.0383335,6 C17.2501086,6 14.9895777,8.26053085 14.9895777,11.049019 C14.9895777,11.4443289 15.0340567,11.8299009 15.1201195,12.1994184 C10.9240963,11.9891303 7.20339251,9.97889224 4.71336079,6.92431999 C4.27857246,7.6699346 4.02959561,8.53714256 4.02959561,9.46225211 C4.02959561,11.2140385 4.92101696,12.7592215 6.27565106,13.6651182 C5.44792146,13.6387993 4.66940822,13.4116672 3.98906449,13.0334645 C3.98853812,13.0545196 3.98853812,13.0758379 3.98853812,13.0968931 C3.98853812,15.5432354 5.72874419,17.5840034 8.03875459,18.0477425 C7.61475701,18.1632825 7.16865155,18.2248687 6.70833388,18.2248687 C6.38329539,18.2248687 6.06641576,18.193286 5.75848456,18.1343317 C6.40066587,20.1403587 8.26562356,21.6000053 10.4748325,21.6405364 C8.74699635,22.9949073 6.56989644,23.8021081 4.20408996,23.8021081 C3.79667329,23.8021081 3.39504678,23.7781579 3,23.7315735 C5.23421195,25.1638484 7.88821045,26 10.7396007,26 C20.0262268,26 25.1049861,18.3064573 25.1049861,11.6343514 C25.1049861,11.4153781 25.1002487,11.1977208 25.0905107,10.9811162 C26.0772065,10.269453 26.9330973,9.38013712 27.6097564,8.36738561 Z" transform="translate(40)"/>
    <path fill="#FFFFFF" d="M0,0 L30,0 L30,30 L0,30 L0,0 Z M24.273802,4 L20.4685474,4 C16.3868727,4 16.1791608,7.52838104 16.1791608,8.98123048 L16.1791608,11.1603913 L14,11.1603913 L14,15.0348076 L16.317711,15.0348076 L16.317711,26 L20.7798885,26 L20.7798885,14.9654191 L23.8581515,14.9654191 L24.2391078,11.1259238 L20.8318164,11.1259238 L20.8318164,8.99846422 C20.8318164,7.63223698 21.9558643,7.87418959 21.9558643,7.87418959 L24.273802,7.87418959 L24.273802,4 Z"/>
    <path fill="#FFFFFF" d="M0,0 L30,0 L30,30 L0,30 L0,0 Z M24.6884409,19.7439328 C24.6353386,20.8937584 24.4405039,21.5183436 24.2766614,21.9338017 C24.0599055,22.4840182 23.8008189,22.8771098 23.3824252,23.2895857 C22.9640315,23.7022481 22.5656693,23.9577856 22.007622,24.1717587 C21.5862047,24.3331704 20.9531339,24.5253361 19.7875276,24.5778974 C18.5268661,24.6345593 18.1489134,24.6464881 14.9561575,24.6464881 C11.7634016,24.6464881 11.3854488,24.6345593 10.1249764,24.5778974 C8.9591811,24.5253361 8.32611024,24.3331704 7.90488189,24.1717587 C7.34664567,23.9577856 6.94828346,23.7022481 6.53007874,23.2895857 C6.11168504,22.8771098 5.85259843,22.4840182 5.63565354,21.9338017 C5.47181102,21.5183436 5.27716535,20.8937584 5.22387402,19.7439328 C5.1664252,18.5005405 5.15414173,18.1275788 5.15414173,14.9789316 C5.15414173,11.830098 5.1664252,11.4571362 5.22387402,10.213744 C5.27716535,9.06391835 5.47181102,8.43970599 5.63565354,8.02406145 C5.85259843,7.47347222 6.11168504,7.08093975 6.53007874,6.66809103 C6.94828346,6.25542869 7.34664567,5.99989117 7.90488189,5.78591811 C8.32611024,5.62450637 8.9591811,5.43234067 10.1249764,5.37996573 C11.3856378,5.32330387 11.7637795,5.31100228 14.9561575,5.31100228 C18.1487244,5.31100228 18.5266772,5.32330387 19.7875276,5.37996573 C20.9531339,5.43234067 21.5862047,5.62450637 22.007622,5.78591811 C22.5656693,5.99989117 22.9640315,6.25542869 23.3824252,6.66809103 C23.8008189,7.08093975 24.0599055,7.47347222 24.2766614,8.02406145 C24.4405039,8.43970599 24.6353386,9.06391835 24.6884409,10.213744 C24.7458898,11.4571362 24.7581732,11.830098 24.7581732,14.9789316 C24.7581732,18.1275788 24.7458898,18.5005405 24.6884409,19.7439328 M26.8405039,10.1170088 C26.7824882,8.86168771 26.5802835,8.00467713 26.2847244,7.2542803 C25.9791496,6.47890753 25.5703937,5.82133177 24.9055748,5.16561989 C24.2409449,4.51028078 23.5742362,4.10675144 22.7879055,3.80554894 C22.0274646,3.5140386 21.1583622,3.31460378 19.8856063,3.25738276 C18.6103937,3.19997535 18.2033386,3.18636905 14.9561575,3.18636905 C11.7089764,3.18636905 11.3019213,3.19997535 10.0267087,3.25738276 C8.75395276,3.31460378 7.88503937,3.5140386 7.12440945,3.80554894 C6.33807874,4.10675144 5.67137008,4.51028078 5.00674016,5.16561989 C4.34192126,5.82133177 3.93316535,6.47890753 3.62777953,7.2542803 C3.3320315,8.00467713 3.13001575,8.86168771 3.072,10.1170088 C3.01379528,11.3747529 3,11.776232 3,14.9789316 C3,18.1816312 3.01379528,18.5829239 3.072,19.8408544 C3.13001575,21.0959891 3.3320315,21.9533724 3.62777953,22.7033965 C3.93316535,23.4787692 4.34192126,24.1365314 5.00674016,24.7920569 C5.67137008,25.4477688 6.33807874,25.8509253 7.12440945,26.1523142 C7.88503937,26.4436382 8.75395276,26.643073 10.0267087,26.700294 C11.3019213,26.7577014 11.7089764,26.7713077 14.9561575,26.7713077 C18.2033386,26.7713077 18.6103937,26.7577014 19.8856063,26.700294 C21.1583622,26.643073 22.0274646,26.4436382 22.7879055,26.1523142 C23.5742362,25.8509253 24.2409449,25.4477688 24.9055748,24.7920569 C25.5703937,24.1365314 25.9791496,23.4787692 26.2847244,22.7033965 C26.5802835,21.9533724 26.7824882,21.0959891 26.8405039,19.8408544 C26.8987087,18.5829239 26.912315,18.1816312 26.912315,14.9789316 C26.912315,11.776232 26.8987087,11.3747529 26.8405039,10.1170088 M14.9561575,18.9097361 C12.7551496,18.9097361 10.9708346,17.1498635 10.9708346,14.9788197 C10.9708346,12.8079624 12.7551496,11.0479034 14.9561575,11.0479034 C17.1571654,11.0479034 18.9416693,12.8079624 18.9416693,14.9788197 C18.9416693,17.1498635 17.1571654,18.9097361 14.9561575,18.9097361 M14.9561575,8.9232702 C11.5653543,8.9232702 8.81650394,11.6344655 8.81650394,14.9788197 C8.81650394,18.3233604 11.5653543,21.0343693 14.9561575,21.0343693 C18.3469606,21.0343693 21.095811,18.3233604 21.095811,14.9788197 C21.095811,11.6344655 18.3469606,8.9232702 14.9561575,8.9232702 M21.3384378,10.0990969 C20.5460598,10.0990969 19.9037291,9.46556518 19.9037291,8.68404161 C19.9037291,7.90251804 20.5460598,7.2687999 21.3384378,7.2687999 C22.1308157,7.2687999 22.7731465,7.90251804 22.7731465,8.68404161 C22.7731465,9.46556518 22.1308157,10.0990969 21.3384378,10.0990969" transform="translate(80)"/>
    <path fill="#FFFFFF" d="M0,0 L30,0 L30,30 L0,30 L0,0 Z M6.02402299,23.7757667 L10.4114943,23.7757667 L10.4114943,11.5268889 L6.02402299,11.5268889 L6.02402299,23.7757667 Z M8.20574713,10.2568708 L8.22998851,10.2568708 C9.58728736,10.2568708 10.459977,9.31119861 10.459977,8.14099653 C10.4357356,6.89610069 9.58728736,6 8.22998851,6 C6.87247126,6 6,6.89610069 6,8.14099653 C6,9.31119861 6.84844828,10.2568708 8.20574713,10.2568708 Z M13.1023966,15.709537 L13.1023966,23.7757891 L17.4898678,23.7757891 L17.4898678,16.829719 C17.4898678,16.506046 17.5141092,16.1574752 17.6110747,15.933394 C17.8050057,15.4605578 18.1928678,14.8630078 19.0410977,14.8630078 C20.1077184,14.8630078 20.5683046,15.6846391 20.5683046,17.103596 L20.5683046,23.7757891 L24.9555575,23.7757891 L24.9555575,16.5558419 C24.9555575,13.1948474 23.428569,11.2530342 20.6410287,11.2530342 C18.653454,11.2530342 17.4898678,12.4479099 17.053523,13.0954801 L16.9807989,13.0954801 L16.7868678,11.5269113 L13.0056494,11.5269113 C13.0539138,12.6722155 13.1023966,14.0662745 13.1023966,15.709537 Z" transform="translate(120)"/>
    <path fill="#FFFFFF" d="M0,0 L30,0 L30,30 L0,30 L0,0 Z M15.9976812,3.99997767 C9.35124375,3.99997767 5.99988125,8.48028835 5.99988125,12.2165602 C5.99988125,14.4788223 6.91093125,16.4912107 8.86460625,17.2415019 C9.18499375,17.3645408 9.47213125,17.2457447 9.56499375,16.912133 C9.62959375,16.6812398 9.78254375,16.0988709 9.85070625,15.8565893 C9.94451875,15.5267738 9.90818125,15.4111039 9.64954375,15.1234922 C9.08619375,14.4986961 8.72614375,13.6899 8.72614375,12.5441427 C8.72614375,9.22030777 11.3711812,6.24459903 15.6136437,6.24459903 C19.3704187,6.24459903 21.4345312,8.40280291 21.4345312,11.2851718 C21.4345312,15.0777155 19.6494812,18.2782883 16.9992187,18.2782883 C15.5357437,18.2782883 14.4403937,17.1403466 14.7914187,15.7449388 C15.2120312,14.0784437 16.0264187,12.280201 16.0264187,11.0775019 C16.0264187,10.000968 15.4117687,9.10285146 14.1397187,9.10285146 C12.6437062,9.10285146 11.4419562,10.5581039 11.4419562,12.5075214 C11.4419562,13.7488515 11.8879812,14.5886864 11.8879812,14.5886864 C11.8879812,14.5886864 10.3570562,20.6877058 10.0886812,21.7557544 C9.55406875,23.8829194 10.0084062,26.4906282 10.0468812,26.7541233 C10.0692062,26.9102107 10.2827187,26.9472786 10.3791437,26.8293757 C10.5171312,26.6598903 12.2990937,24.5916767 12.9047187,22.5252495 C13.0761937,21.9399777 13.8889187,18.9097835 13.8889187,18.9097835 C14.3748437,19.7815505 15.7953312,20.5492592 17.3060687,20.5492592 C21.8031312,20.5492592 24.8540562,16.6946379 24.8540562,11.5350456 C24.8540562,7.63330777 21.3395312,3.99997767 15.9976812,3.99997767 Z" transform="translate(160)"/>
    <path fill="#FFFFFF" d="M0,0 L30,0 L30,30 L0,30 L0,0 Z M6.36290297,2.999975 L8.30054653,2.999975 L8.55359604,3.958975 L8.75644752,4.684725 L8.93407129,5.385225 L9.09830891,6.110975 L9.23757624,6.726225 L9.31325941,6.726225 L9.45226931,6.110975 L9.60466535,5.385225 L9.79413069,4.684725 L9.98488317,3.958975 L10.2500317,2.999975 L12.1395366,2.999975 L10.1362495,8.804725 L10.1362495,12.936475 L8.35100198,12.936475 L8.35100198,8.804725 L6.36290297,2.999975 Z M14.528705,6.627225 C14.1232594,6.627225 13.9258139,6.873975 13.9258139,7.316725 L13.9258139,11.165475 C13.9258139,11.595475 14.1559525,11.850725 14.528705,11.850725 C14.9230812,11.850725 15.1532198,11.595475 15.1532198,11.165475 L15.1532198,7.316725 C15.1532198,6.873975 14.9230812,6.627225 14.528705,6.627225 L14.528705,6.627225 Z M14.528705,5.435225 C16.0518931,5.435225 16.8192792,6.135475 16.8192792,7.525475 L16.8192792,10.956725 C16.8192792,12.350975 16.0518931,13.042975 14.528705,13.042975 C13.0271406,13.042975 12.2492,12.350975 12.2492,10.956725 L12.2492,7.525475 C12.2492,6.135475 13.0271406,5.435225 14.528705,5.435225 L14.528705,5.435225 Z M21.5754772,12.936475 L21.4439327,12.297725 C20.7535168,12.851225 20.3480713,13.042975 19.8659129,13.042975 C19.4712792,13.042975 19.0439525,12.861975 18.8465069,12.627725 C18.6385069,12.372225 18.5836752,12.095725 18.5836752,11.337725 L18.5836752,5.532975 L20.2602891,5.532975 L20.2602891,11.300475 C20.2602891,11.669975 20.3810218,11.850725 20.6986851,11.850725 C20.8961307,11.850725 21.0933188,11.776225 21.4439327,11.542225 L21.4439327,5.532975 L23.120804,5.532975 L23.120804,12.936475 L21.5754772,12.936475 Z M22.9673782,19.268975 C22.605695,19.268975 22.4085069,19.439475 22.4085069,19.758725 L22.4085069,20.897475 L23.5262495,20.897475 L23.5262495,19.758725 C23.5262495,19.439475 23.3071802,19.268975 22.9673782,19.268975 L22.9673782,19.268975 Z M17.3781505,19.268975 C17.1917743,19.268975 17.0164673,19.332975 16.6985465,19.545725 L16.6985465,23.739225 C17.0164673,23.941475 17.1917743,24.015975 17.3781505,24.015975 C17.6631208,24.015975 17.783596,23.845725 17.783596,23.515725 L17.783596,19.779975 C17.783596,19.418225 17.6631208,19.269225 17.3781505,19.269225 L17.3781505,19.268975 Z M9.42601188,18.257975 L10.9437941,18.257975 L10.9437941,23.515725 C10.9437941,23.845725 11.0645267,24.015975 11.3451208,24.015975 C11.5423089,24.015975 11.7065465,23.941475 12.0190614,23.739225 L12.0190614,18.257975 L13.5422495,18.257975 L13.5422495,25.005725 L12.1506059,25.005725 L12.0190614,24.420475 C11.3966059,24.920725 11.0305465,25.101475 10.5942099,25.101475 C10.2281505,25.101475 9.84458614,24.931225 9.66927921,24.718475 C9.47852673,24.484225 9.42601188,24.239475 9.42601188,23.547725 L9.42601188,18.257975 L9.42601188,18.257975 Z M22.9892594,18.183475 C24.2604277,18.183475 25.0386257,18.811475 25.0386257,19.865225 L25.0386257,21.844725 L22.4085069,21.844725 L22.4085069,23.313475 C22.4085069,23.813725 22.5619327,24.015975 22.9673782,24.015975 C23.1537545,24.015975 23.3290614,23.930725 23.4165861,23.813725 C23.493299,23.685975 23.5262495,23.536975 23.5262495,23.047475 L23.5262495,22.642975 L25.0386257,22.642975 L25.0386257,22.887725 C25.049695,23.057975 25.049695,23.185725 25.049695,23.260225 C25.049695,24.452225 24.3044475,25.101475 22.9233584,25.101475 C21.6192396,25.101475 20.8850614,24.420475 20.8850614,23.196475 L20.8850614,20.067225 C20.8850614,18.790225 21.5865465,18.183475 22.9892594,18.183475 L22.9892594,18.183475 Z M15.1753584,15.958975 L16.6985465,15.958975 L16.6985465,18.896475 C17.2903683,18.385725 17.6958139,18.183475 18.1560911,18.183475 C18.4958931,18.183475 18.8794574,18.343225 19.0547644,18.566725 C19.2411406,18.800725 19.2959723,19.045475 19.2959723,19.779975 L19.2959723,23.515725 C19.2959723,24.218225 19.2411406,24.462975 19.0547644,24.707725 C18.8794574,24.931225 18.4958931,25.101475 18.123398,25.101475 C17.6739327,25.101475 17.2903683,24.888725 16.6985465,24.367225 L16.6985465,25.005725 L15.1753584,25.005725 L15.1753584,15.958975 L15.1753584,15.958975 Z M4.41882376,15.958975 L9.14644752,15.958975 L9.14644752,17.140475 L7.55967525,17.140475 L7.55967525,25.005725 L5.93763564,25.005725 L5.93763564,17.140475 L4.41882376,17.140475 L4.41882376,15.958975 L4.41882376,15.958975 Z M6.49444752,14.277475 C4.01209109,14.277475 2.00005149,16.235725 2.00005149,18.641225 L2.00005149,22.451475 C2.00005149,24.867475 4.01209109,26.825725 6.49444752,26.825725 L23.3398733,26.825725 C25.8276356,26.825725 27.8443089,24.867475 27.8443089,22.451475 L27.8443089,18.641225 C27.8443089,16.235725 25.8276356,14.277475 23.3398733,14.277475 L6.49444752,14.277475 L6.49444752,14.277475 Z" transform="translate(200)"/>
    <path fill="#FFFFFF" d="M0,0 L30,0 L30,30 L0,30 L0,0 Z M10.5896739,8 C6.39401363,8 3,11.3934491 3,15.5905207 C3,19.7878745 6.39344909,23.1813236 10.5896739,23.1813236 C14.97135,23.1813236 17.8761898,20.1026055 17.8761898,15.7643989 C17.8761898,15.2647812 17.8761898,14.8848458 17.7567896,14.5046283 L10.5896739,14.5046283 L10.5896739,17.1108265 L14.8954194,17.1108265 C14.7215411,18.2240991 13.5921791,20.3851577 10.5896739,20.3851577 C7.99956499,20.3851577 5.88423414,18.2348254 5.88423414,15.5905207 C5.88423414,12.946216 7.99956499,10.7961659 10.5896739,10.7961659 C12.0665101,10.7961659 13.0547372,11.4259101 13.6139139,11.9689975 L15.6773071,9.9871803 C14.352332,8.74914439 12.6420585,8 10.5896739,8 L10.5896739,8 Z M22.5186834,12.3382065 L22.5186834,14.5046283 L20.3468985,14.5046283 L20.3468985,16.6764131 L22.5186834,16.6764131 L22.5186834,18.8431171 L24.6851051,18.8431171 L24.6851051,16.6764131 L26.8568899,16.6764131 L26.8568899,14.5046283 L24.6851051,14.5046283 L24.6851051,12.3382065 L22.5186834,12.3382065 Z" transform="translate(240)"/>
    <path fill="#FFFFFF" d="M280,0 L310,0 L310,30 L280,30 L280,0 Z M305.741817,10.3549914 C305.87043,7.51985413 304.817316,6.06958205 302.581532,6.0038607 C299.566212,5.9076371 297.523504,7.61010306 296.454667,11.112202 C297.006224,10.8741586 297.543629,10.7552942 298.064998,10.7552942 C299.17094,10.7552942 299.659291,11.377603 299.52942,12.6200195 C299.463699,13.3706265 298.975663,14.466192 298.064998,15.9054581 C297.153704,17.3431519 296.468818,18.0635711 296.013171,18.0635711 C295.427653,18.0635711 294.890248,16.9554274 294.402526,14.7372533 C294.23838,14.0866433 293.94625,12.4234844 293.523621,9.74934872 C293.132437,7.27237709 292.09033,6.11392038 290.397612,6.27649424 C289.680337,6.34253005 288.606155,6.99408333 287.173807,8.23052518 C286.132013,9.17578058 285.07261,10.1200926 284,11.0625179 L285.022612,12.3816617 C285.99774,11.6992917 286.568164,11.35622 286.730423,11.35622 C287.477571,11.35622 288.175664,12.5285128 288.825645,14.8699538 C289.410534,17.0173753 289.996366,19.1629101 290.581569,21.3097027 C291.458587,23.6524015 292.531197,24.823122 293.798141,24.823122 C295.846195,24.823122 298.348637,22.9005367 301.305155,19.0547371 C304.165134,15.3733982 305.645594,12.4725396 305.741817,10.3549914 Z"/>
    <g transform="translate(320)">
      <path fill="#FFFFFF" d="M0,0 L30,0 L30,30 L0,30 L0,0 Z M23.2888157,20.865576 C21.9869689,21.3142278 20.5749076,21.2617359 19.3132297,20.7183851 C18.0524096,20.1755685 17.0943579,19.2076079 16.615332,17.9924147 L16.6147602,17.9917468 C16.1334471,16.7748172 16.1877681,15.455976 16.7687175,14.2781815 C17.3495238,13.1005206 18.3859123,12.2042856 19.6884738,11.7552331 C22.376651,10.8285447 25.3707414,12.1171998 26.3631012,14.6282608 C27.3561757,17.1379861 25.976707,19.9363499 23.2888157,20.865576 M8.51477707,21.1411248 C5.6494847,21.1411248 3.31839697,18.9642487 3.31839697,16.2878317 C3.31839697,13.6107469 5.6494847,11.4326686 8.51477707,11.4326686 C11.3796406,11.4326686 13.7105854,13.6107469 13.7105854,16.2878317 C13.7105854,18.9642487 11.3796406,21.1411248 8.51477707,21.1411248 M21.2772215,10.2310992 C20.5959212,10.2511343 19.9070446,10.3704097 19.2331777,10.6026828 C17.601402,11.1659352 16.3018423,12.2885664 15.5749409,13.7646161 C15.2557333,14.4124164 15.0654667,15.0937421 15.0008532,15.7833489 C14.7281044,12.6948774 11.9770292,10.254607 8.61441331,10.2070571 C10.4830574,9.45721159 12.6421761,9.06051739 14.9726921,9.06051739 C17.3070676,9.06051739 19.415582,9.45333815 21.2772215,10.2310992 M27.5960461,14.2028497 C27.3757599,13.64494 27.0751358,13.1363166 26.7131861,12.6816543 C27.0213865,11.4664611 27.9937333,10.253672 27.9937333,10.253672 L23.6672047,10.2510007 C21.2284756,8.77548525 18.2585437,8.0001284 14.9726921,8.0001284 C11.5699072,8.0001284 8.49390635,8.79805809 6.07061578,10.2793169 L1.99996794,10.2818547 C1.99996794,10.2818547 2.95844854,11.4771464 3.27408243,12.6835242 C2.47670661,13.6930242 2.00411349,14.9396057 2.00411349,16.2878317 C2.00411349,19.6415673 4.9245846,22.3695412 8.51477707,22.3695412 C10.5658255,22.3695412 12.3971596,21.4781146 13.591365,20.0892841 L14.9749793,22.0258731 L16.3720309,20.0733897 C17.0000108,20.8202967 17.8119675,21.4238863 18.7627288,21.833403 C20.3427566,22.5145951 22.1120503,22.5801765 23.7442549,22.017592 C27.1127317,20.8534214 28.8404269,17.3475528 27.5960461,14.2028497 M8.43072239,15.223409 C7.83204726,15.223409 7.34830402,15.6748657 7.34830402,16.2335767 C7.34830402,16.7909521 7.83204726,17.2450802 8.43072239,17.2450802 C9.02739623,17.2450802 9.51199716,16.7909521 9.51199716,16.2335767 C9.51199716,15.6748657 9.02739623,15.223409 8.43072239,15.223409 M21.4752647,15.223409 C20.8763036,15.223409 20.3941328,15.6748657 20.3941328,16.2335767 C20.3941328,16.7909521 20.8763036,17.2450802 21.4752647,17.2450802 C22.0722244,17.2450802 22.5553958,16.7909521 22.5553958,16.2335767 C22.5553958,15.6748657 22.0722244,15.223409 21.4752647,15.223409 M8.43399595,18.2034907 C7.27023896,18.2034907 6.32305141,17.3200781 6.32305141,16.2336435 C6.32305141,15.1480104 7.27023896,14.2649984 8.43399595,14.2649984 C9.59360739,14.2649984 10.53765,15.1480104 10.53765,16.2336435 C10.53765,17.3200781 9.59360739,18.2034907 8.43399595,18.2034907 M8.43399595,13.2305215 C6.65941306,13.2305215 5.21590267,14.5774118 5.21590267,16.2336435 C5.21590267,17.8897417 6.65941306,19.2374334 8.43399595,19.2374334 C10.2044333,19.2374334 11.6449417,17.8897417 11.6449417,16.2336435 C11.6449417,14.5774118 10.2044333,13.2305215 8.43399595,13.2305215 M21.4752647,18.2034907 C20.3123654,18.2034907 19.3666073,17.3200781 19.3666073,16.2336435 C19.3666073,15.1480104 20.3123654,14.2649984 21.4752647,14.2649984 C22.6367344,14.2649984 23.5813489,15.1480104 23.5813489,16.2336435 C23.5813489,17.3200781 22.6367344,18.2034907 21.4752647,18.2034907 M21.4752647,13.2305215 C19.7025401,13.2305215 18.2593156,14.5774118 18.2593156,16.2336435 C18.2593156,17.8897417 19.7025401,19.2374334 21.4752647,19.2374334 C23.2467026,19.2374334 24.6886406,17.8897417 24.6886406,16.2336435 C24.6886406,14.5774118 23.2467026,13.2305215 21.4752647,13.2305215"/>
    </g>
    <path fill="#FFFFFF" d="M360,0 L390,0 L390,30 L360,30 L360,0 Z M381.530343,12.9979388 C381.569043,12.9979388 381.67546,12.9592392 381.849606,12.8818438 C382.023749,12.8044484 382.149518,12.7657488 382.226913,12.7657488 C382.768692,12.7657488 383.155673,12.8237963 383.387863,12.9398913 C383.697452,13.0946859 383.861917,13.2978502 383.881265,13.5493919 C383.900616,13.8009298 383.774847,14.0234421 383.503958,14.2169362 C383.271768,14.3717307 382.807392,14.5845691 382.110818,14.8554586 C381.569039,15.0489527 381.24978,15.2617911 381.153036,15.493981 C381.056289,15.726171 381.143358,16.0938039 381.414248,16.5968834 C382.381711,18.4544143 383.73614,19.5960014 385.477573,20.0216855 C385.825858,20.1377805 386,20.2538755 386,20.3699705 C386,20.7182554 385.883905,20.9697933 385.651715,21.1245879 C385.032541,21.3954774 384.355326,21.6276652 383.620053,21.8211578 C383.233068,21.9372535 383.000878,22.1500922 382.923483,22.4596802 C382.846087,22.885364 382.739666,23.1465751 382.60422,23.2433214 C382.468777,23.3400677 382.188217,23.3497421 381.762533,23.2723451 C380.446785,23.0014556 379.227799,23.2723411 378.105541,24.0850101 C376.983283,24.8976791 375.938439,25.2943329 374.970976,25.2749837 C374.003513,25.2556344 372.958669,24.8396316 371.836412,24.0269626 C370.752853,23.252992 369.572567,23.0014556 368.295515,23.2723451 C367.86983,23.3497421 367.589271,23.3400677 367.453826,23.2433214 C367.318381,23.1465751 367.192613,22.885364 367.076517,22.4596802 C366.99912,22.072695 366.786282,21.8598563 366.437995,21.8211578 C365.702723,21.7050621 365.044858,21.4922245 364.46438,21.1826354 C364.232189,21.0665404 364.077397,20.8150025 364,20.428018 C364,20.2345239 364.212839,20.079733 364.638522,19.963638 C366.457353,19.4605585 367.850479,18.1835248 368.817942,16.1325035 C368.972737,15.7455189 368.856642,15.4165856 368.469657,15.1456961 C368.353562,15.1069965 368.17942,15.048949 367.94723,14.9715536 C367.715038,14.8941582 367.540898,14.816759 367.424802,14.7393636 C367.115214,14.5845691 366.902375,14.4684741 366.78628,14.3910787 C366.2445,14.0814896 366.07036,13.7138604 366.263852,13.2881763 C366.496043,12.7076976 366.94107,12.5335589 367.598945,12.7657488 C367.985929,12.9205434 368.276163,13.0172867 368.469657,13.0559863 C368.856642,13.0946859 369.050132,12.9205434 369.050132,12.5335589 C369.011432,11.4887003 369.011432,10.4438528 369.050132,9.39899423 C369.204926,7.19317833 370.365865,5.68395836 372.532982,4.87128974 C373.964828,4.29081109 375.445023,4.2327636 376.973617,4.69714726 C378.502207,5.16153092 379.653472,6.07093175 380.427441,7.42537945 C380.775726,8.08325352 380.988568,9.12809725 381.065963,10.5599441 C381.065963,10.7921341 381.046615,11.1307413 381.007916,11.5757771 C380.969216,12.0208091 380.949868,12.3594164 380.949868,12.5916064 C380.911169,12.8237963 380.949868,12.9689132 381.065963,13.0269607 C381.182058,13.0850119 381.336849,13.0753342 381.530343,12.9979388 Z"/>
  </g>
</svg>
