<?xml version="1.0" encoding="UTF-8" standalone="no"?>
<svg width="270px" height="30px" viewBox="0 0 270 30" version="1.1" xmlns="http://www.w3.org/2000/svg" xmlns:xlink="http://www.w3.org/1999/xlink">
    <!-- Generator: Sketch 41.1 (35376) - http://www.bohemiancoding.com/sketch -->
    <title>social-icons-white</title>
    <desc>Created with Sketch.</desc>
    <defs></defs>
    <g id="#Library" stroke="none" stroke-width="1" fill="none" fill-rule="evenodd">
        <g id="Icons" transform="translate(0.000000, -350.000000)" fill="#FFFFFF">
            <g id="social-icons-white" transform="translate(0.000000, 350.000000)">
                <g id="Group-3">
                    <g id="Twitter-Copy" transform="translate(40.000000, 0.000000)">
                        <path d="M0,0 L30,0 L30,30 L0,30 L0,0 Z M27.6097564,8.36738561 C26.7041229,8.76901212 25.7311129,9.04062323 24.7099393,9.16247977 C25.752168,8.53793212 26.5527891,7.54834125 26.9299391,6.36899106 C25.9545604,6.94774381 24.8739061,7.36805674 23.7237699,7.59439934 C22.8026082,6.61323051 21.4906107,6 20.0383335,6 C17.2501086,6 14.9895777,8.26053085 14.9895777,11.049019 C14.9895777,11.4443289 15.0340567,11.8299009 15.1201195,12.1994184 C10.9240963,11.9891303 7.20339251,9.97889224 4.71336079,6.92431999 C4.27857246,7.6699346 4.02959561,8.53714256 4.02959561,9.46225211 C4.02959561,11.2140385 4.92101696,12.7592215 6.27565106,13.6651182 C5.44792146,13.6387993 4.66940822,13.4116672 3.98906449,13.0334645 C3.98853812,13.0545196 3.98853812,13.0758379 3.98853812,13.0968931 C3.98853812,15.5432354 5.72874419,17.5840034 8.03875459,18.0477425 C7.61475701,18.1632825 7.16865155,18.2248687 6.70833388,18.2248687 C6.38329539,18.2248687 6.06641576,18.193286 5.75848456,18.1343317 C6.40066587,20.1403587 8.26562356,21.6000053 10.4748325,21.6405364 C8.74699635,22.9949073 6.56989644,23.8021081 4.20408996,23.8021081 C3.79667329,23.8021081 3.39504678,23.7781579 3,23.7315735 C5.23421195,25.1638484 7.88821045,26 10.7396007,26 C20.0262268,26 25.1049861,18.3064573 25.1049861,11.6343514 C25.1049861,11.4153781 25.1002487,11.1977208 25.0905107,10.9811162 C26.0772065,10.269453 26.9330973,9.38013712 27.6097564,8.36738561 Z" id="Combined-Shape"></path>
                    </g>
                    <g id="Facebook-Copy">
                        <path d="M0,0 L30,0 L30,30 L0,30 L0,0 Z M24.273802,4 L24.273802,7.87418959 L21.9558643,7.87418959 C21.9558643,7.87418959 20.8318164,7.63223698 20.8318164,8.99846422 L20.8318164,11.1259238 L24.2391078,11.1259238 L23.8581515,14.9654191 L20.7798885,14.9654191 L20.7798885,26 L16.317711,26 L16.317711,15.0348076 L14,15.0348076 L14,11.1603913 L16.1791608,11.1603913 L16.1791608,8.98123048 C16.1791608,7.52838104 16.3868727,4 20.4685474,4 L24.273802,4 Z" id="Combined-Shape"></path>
                    </g>
                    <g id="Instagram" transform="translate(80.000000, 0.000000)">
                        <path d="M0,0 L30,0 L30,30 L0,30 L0,0 Z M25.2511506,15.1273002 C25.2511506,17.5155047 25.2537802,19.9034702 25.2504334,22.2914356 C25.2480428,24.028442 24.1302005,25.1553686 22.4003659,25.1565639 C17.5830777,25.1599107 12.7660286,25.1603888 7.94874044,25.1560857 C6.26265372,25.1546514 5.12879447,24.0160109 5.12712105,22.3203618 C5.12233986,17.5030737 5.12233986,12.6857855 5.12712105,7.86873636 C5.12879447,6.17499974 6.26432714,5.035164 7.95089198,5.03349058 C12.7885002,5.02870939 17.6263475,5.02823127 22.4641948,5.0339687 C24.1103586,5.03588117 25.2463694,6.18599647 25.2499553,7.83981016 C25.2549755,10.2688938 25.2511506,12.6982166 25.2511506,15.1273002 M11.1660033,13.4770725 C10.9563481,13.4529274 10.8002423,13.4204154 10.6438973,13.4196982 C9.57314981,13.415156 8.50192414,13.4357152 7.43165472,13.4087014 C6.96214184,13.3969875 6.83352783,13.5750869 6.83615748,14.0228453 C6.85193541,16.6998337 6.83950432,19.3768221 6.84643704,22.0538105 C6.84882764,23.0516449 7.24160241,23.4374869 8.23441655,23.4382041 C12.8676289,23.4408338 17.5008413,23.4405947 22.1340536,23.4384432 C23.1725281,23.437965 23.5311174,23.0702915 23.5323127,22.0138875 C23.5344642,19.6046458 23.5330299,17.195165 23.5330299,14.7859233 C23.5330299,13.2989731 23.5330299,13.2989731 22.0338877,13.2989731 L19.5223285,13.2989731 C20.0539968,16.255183 19.6420973,17.7803827 17.9820681,18.9192622 C16.4107299,19.9971815 14.7100605,20.1028458 13.0966479,19.1325033 C10.9522841,17.8427772 10.4727307,15.8502162 11.1660033,13.4770725 M15.4169595,12.54737 C13.8420355,12.5363733 12.6493676,13.6888792 12.6417177,15.2296177 C12.6338287,16.7744203 13.8229107,17.9974487 15.3406995,18.0055767 C16.8317137,18.0137048 18.0796043,16.8059761 18.0994463,15.3355211 C18.1204835,13.7809171 16.9438326,12.5578886 15.4169595,12.54737 M20.6600127,10.0867305 L20.6600127,10.092946 C20.9277593,10.092946 21.1974185,10.1144614 21.4625355,10.0884039 C22.0575546,10.0303124 22.5545593,9.48167087 22.5402157,8.92681375 C22.525394,8.34637726 22.0341267,7.87423473 21.4034878,7.85702245 C20.9095908,7.84339605 20.4149767,7.84267887 19.9213188,7.85702245 C19.2815955,7.87543003 18.8541571,8.27800624 18.8182982,8.86920041 C18.7802878,9.4974488 19.1675642,9.996366 19.7965297,10.0802759 C20.0795762,10.1182863 20.371946,10.0867305 20.6600127,10.0867305" id="Rectangle-15"></path>
                    </g>
                    <g id="LinkedIn-Copy" transform="translate(120.000000, 0.000000)">
                        <path d="M0,0 L30,0 L30,30 L0,30 L0,0 Z M6.02402299,23.7757667 L10.4114943,23.7757667 L10.4114943,11.5268889 L6.02402299,11.5268889 L6.02402299,23.7757667 Z M8.20574713,10.2568708 C6.84844828,10.2568708 6,9.31119861 6,8.14099653 C6,6.89610069 6.87247126,6 8.22998851,6 C9.58728736,6 10.4357356,6.89610069 10.459977,8.14099653 C10.459977,9.31119861 9.58728736,10.2568708 8.22998851,10.2568708 L8.20574713,10.2568708 Z M13.1023966,15.709537 C13.1023966,14.0662745 13.0539138,12.6722155 13.0056494,11.5269113 L16.7868678,11.5269113 L16.9807989,13.0954801 L17.053523,13.0954801 C17.4898678,12.4479099 18.653454,11.2530342 20.6410287,11.2530342 C23.428569,11.2530342 24.9555575,13.1948474 24.9555575,16.5558419 L24.9555575,23.7757891 L20.5683046,23.7757891 L20.5683046,17.103596 C20.5683046,15.6846391 20.1077184,14.8630078 19.0410977,14.8630078 C18.1928678,14.8630078 17.8050057,15.4605578 17.6110747,15.933394 C17.5141092,16.1574752 17.4898678,16.506046 17.4898678,16.829719 L17.4898678,23.7757891 L13.1023966,23.7757891 L13.1023966,15.709537 Z" id="Combined-Shape"></path>
                    </g>
                    <g id="Pinterest-Copy" transform="translate(160.000000, 0.000000)">
                        <path d="M0,0 L30,0 L30,30 L0,30 L0,0 Z M15.9976812,3.99997767 C9.35124375,3.99997767 5.99988125,8.48028835 5.99988125,12.2165602 C5.99988125,14.4788223 6.91093125,16.4912107 8.86460625,17.2415019 C9.18499375,17.3645408 9.47213125,17.2457447 9.56499375,16.912133 C9.62959375,16.6812398 9.78254375,16.0988709 9.85070625,15.8565893 C9.94451875,15.5267738 9.90818125,15.4111039 9.64954375,15.1234922 C9.08619375,14.4986961 8.72614375,13.6899 8.72614375,12.5441427 C8.72614375,9.22030777 11.3711812,6.24459903 15.6136437,6.24459903 C19.3704187,6.24459903 21.4345312,8.40280291 21.4345312,11.2851718 C21.4345312,15.0777155 19.6494812,18.2782883 16.9992187,18.2782883 C15.5357437,18.2782883 14.4403937,17.1403466 14.7914187,15.7449388 C15.2120312,14.0784437 16.0264187,12.280201 16.0264187,11.0775019 C16.0264187,10.000968 15.4117687,9.10285146 14.1397187,9.10285146 C12.6437062,9.10285146 11.4419562,10.5581039 11.4419562,12.5075214 C11.4419562,13.7488515 11.8879812,14.5886864 11.8879812,14.5886864 C11.8879812,14.5886864 10.3570562,20.6877058 10.0886812,21.7557544 C9.55406875,23.8829194 10.0084062,26.4906282 10.0468812,26.7541233 C10.0692062,26.9102107 10.2827187,26.9472786 10.3791437,26.8293757 C10.5171312,26.6598903 12.2990937,24.5916767 12.9047187,22.5252495 C13.0761937,21.9399777 13.8889187,18.9097835 13.8889187,18.9097835 C14.3748437,19.7815505 15.7953312,20.5492592 17.3060687,20.5492592 C21.8031312,20.5492592 24.8540562,16.6946379 24.8540562,11.5350456 C24.8540562,7.63330777 21.3395312,3.99997767 15.9976812,3.99997767 Z" id="Combined-Shape"></path>
                    </g>
                    <g id="Youtube-Copy" transform="translate(200.000000, 0.000000)">
                        <path d="M0,0 L30,0 L30,30 L0,30 L0,0 Z M6.36290297,2.999975 L8.30054653,2.999975 L8.55359604,3.958975 L8.75644752,4.684725 L8.93407129,5.385225 L9.09830891,6.110975 L9.23757624,6.726225 L9.31325941,6.726225 L9.45226931,6.110975 L9.60466535,5.385225 L9.79413069,4.684725 L9.98488317,3.958975 L10.2500317,2.999975 L12.1395366,2.999975 L10.1362495,8.804725 L10.1362495,12.936475 L8.35100198,12.936475 L8.35100198,8.804725 L6.36290297,2.999975 Z M14.528705,6.627225 C14.1232594,6.627225 13.9258139,6.873975 13.9258139,7.316725 L13.9258139,11.165475 C13.9258139,11.595475 14.1559525,11.850725 14.528705,11.850725 C14.9230812,11.850725 15.1532198,11.595475 15.1532198,11.165475 L15.1532198,7.316725 C15.1532198,6.873975 14.9230812,6.627225 14.528705,6.627225 L14.528705,6.627225 Z M14.528705,5.435225 C16.0518931,5.435225 16.8192792,6.135475 16.8192792,7.525475 L16.8192792,10.956725 C16.8192792,12.350975 16.0518931,13.042975 14.528705,13.042975 C13.0271406,13.042975 12.2492,12.350975 12.2492,10.956725 L12.2492,7.525475 C12.2492,6.135475 13.0271406,5.435225 14.528705,5.435225 L14.528705,5.435225 Z M21.5754772,12.936475 L21.4439327,12.297725 C20.7535168,12.851225 20.3480713,13.042975 19.8659129,13.042975 C19.4712792,13.042975 19.0439525,12.861975 18.8465069,12.627725 C18.6385069,12.372225 18.5836752,12.095725 18.5836752,11.337725 L18.5836752,5.532975 L20.2602891,5.532975 L20.2602891,11.300475 C20.2602891,11.669975 20.3810218,11.850725 20.6986851,11.850725 C20.8961307,11.850725 21.0933188,11.776225 21.4439327,11.542225 L21.4439327,5.532975 L23.120804,5.532975 L23.120804,12.936475 L21.5754772,12.936475 Z M22.9673782,19.268975 C22.605695,19.268975 22.4085069,19.439475 22.4085069,19.758725 L22.4085069,20.897475 L23.5262495,20.897475 L23.5262495,19.758725 C23.5262495,19.439475 23.3071802,19.268975 22.9673782,19.268975 L22.9673782,19.268975 Z M17.3781505,19.268975 C17.1917743,19.268975 17.0164673,19.332975 16.6985465,19.545725 L16.6985465,23.739225 C17.0164673,23.941475 17.1917743,24.015975 17.3781505,24.015975 C17.6631208,24.015975 17.783596,23.845725 17.783596,23.515725 L17.783596,19.779975 C17.783596,19.418225 17.6631208,19.269225 17.3781505,19.269225 L17.3781505,19.268975 Z M9.42601188,18.257975 L10.9437941,18.257975 L10.9437941,23.515725 C10.9437941,23.845725 11.0645267,24.015975 11.3451208,24.015975 C11.5423089,24.015975 11.7065465,23.941475 12.0190614,23.739225 L12.0190614,18.257975 L13.5422495,18.257975 L13.5422495,25.005725 L12.1506059,25.005725 L12.0190614,24.420475 C11.3966059,24.920725 11.0305465,25.101475 10.5942099,25.101475 C10.2281505,25.101475 9.84458614,24.931225 9.66927921,24.718475 C9.47852673,24.484225 9.42601188,24.239475 9.42601188,23.547725 L9.42601188,18.257975 L9.42601188,18.257975 Z M22.9892594,18.183475 C24.2604277,18.183475 25.0386257,18.811475 25.0386257,19.865225 L25.0386257,21.844725 L22.4085069,21.844725 L22.4085069,23.313475 C22.4085069,23.813725 22.5619327,24.015975 22.9673782,24.015975 C23.1537545,24.015975 23.3290614,23.930725 23.4165861,23.813725 C23.493299,23.685975 23.5262495,23.536975 23.5262495,23.047475 L23.5262495,22.642975 L25.0386257,22.642975 L25.0386257,22.887725 C25.049695,23.057975 25.049695,23.185725 25.049695,23.260225 C25.049695,24.452225 24.3044475,25.101475 22.9233584,25.101475 C21.6192396,25.101475 20.8850614,24.420475 20.8850614,23.196475 L20.8850614,20.067225 C20.8850614,18.790225 21.5865465,18.183475 22.9892594,18.183475 L22.9892594,18.183475 Z M15.1753584,15.958975 L16.6985465,15.958975 L16.6985465,18.896475 C17.2903683,18.385725 17.6958139,18.183475 18.1560911,18.183475 C18.4958931,18.183475 18.8794574,18.343225 19.0547644,18.566725 C19.2411406,18.800725 19.2959723,19.045475 19.2959723,19.779975 L19.2959723,23.515725 C19.2959723,24.218225 19.2411406,24.462975 19.0547644,24.707725 C18.8794574,24.931225 18.4958931,25.101475 18.123398,25.101475 C17.6739327,25.101475 17.2903683,24.888725 16.6985465,24.367225 L16.6985465,25.005725 L15.1753584,25.005725 L15.1753584,15.958975 L15.1753584,15.958975 Z M4.41882376,15.958975 L9.14644752,15.958975 L9.14644752,17.140475 L7.55967525,17.140475 L7.55967525,25.005725 L5.93763564,25.005725 L5.93763564,17.140475 L4.41882376,17.140475 L4.41882376,15.958975 L4.41882376,15.958975 Z M6.49444752,14.277475 C4.01209109,14.277475 2.00005149,16.235725 2.00005149,18.641225 L2.00005149,22.451475 C2.00005149,24.867475 4.01209109,26.825725 6.49444752,26.825725 L23.3398733,26.825725 C25.8276356,26.825725 27.8443089,24.867475 27.8443089,22.451475 L27.8443089,18.641225 C27.8443089,16.235725 25.8276356,14.277475 23.3398733,14.277475 L6.49444752,14.277475 L6.49444752,14.277475 Z" id="Combined-Shape"></path>
                    </g>
                    <g id="Google+-Copy" transform="translate(240.000000, 0.000000)">
                        <path d="M0,0 L30,0 L30,30 L0,30 L0,0 Z M10.5896739,8 C6.39401363,8 3,11.3934491 3,15.5905207 C3,19.7878745 6.39344909,23.1813236 10.5896739,23.1813236 C14.97135,23.1813236 17.8761898,20.1026055 17.8761898,15.7643989 C17.8761898,15.2647812 17.8761898,14.8848458 17.7567896,14.5046283 L10.5896739,14.5046283 L10.5896739,17.1108265 L14.8954194,17.1108265 C14.7215411,18.2240991 13.5921791,20.3851577 10.5896739,20.3851577 C7.99956499,20.3851577 5.88423414,18.2348254 5.88423414,15.5905207 C5.88423414,12.946216 7.99956499,10.7961659 10.5896739,10.7961659 C12.0665101,10.7961659 13.0547372,11.4259101 13.6139139,11.9689975 L15.6773071,9.9871803 C14.352332,8.74914439 12.6420585,8 10.5896739,8 L10.5896739,8 Z M22.5186834,12.3382065 L22.5186834,14.5046283 L20.3468985,14.5046283 L20.3468985,16.6764131 L22.5186834,16.6764131 L22.5186834,18.8431171 L24.6851051,18.8431171 L24.6851051,16.6764131 L26.8568899,16.6764131 L26.8568899,14.5046283 L24.6851051,14.5046283 L24.6851051,12.3382065 L22.5186834,12.3382065 Z" id="Rectangle-15-Copy-3"></path>
                    </g>
                </g>
            </g>
        </g>
    </g>
</svg>